# xmcd
#
# Track frame offsets:
#	150
#	15325
#	30482
#	53270
#	69580
#	85027
#	99015
#	119805
#	135215
#	151565
#	171237
#	192675
#
# Disc length: 3014 seconds
#
# Revision: 1
# Processed by: cddbd v1.5.1PL0 Copyright (c) Steve Scherf et al.
# Submitted via: CDex 1.50Beta5
#
DISCID=840bc40c
DTITLE=Scratch 4 Jagger - Jag Generation
DYEAR=1900
DGENRE=
TTITLE0=開放の極
TTITLE1=東南西北
TTITLE2=教えてよ
TTITLE3=ウレイトキ
TTITLE4=龍巻
TTITLE5=最前線に四神乗ずる
TTITLE6=同じ未来照らす世代
TTITLE7=歩
TTITLE8=前突破
TTITLE9=失くしたカケラ
TTITLE10=You and You
TTITLE11=音air〜S4J〜
EXTD=
EXTT0=
EXTT1=
EXTT2=
EXTT3=
EXTT4=
EXTT5=
EXTT6=
EXTT7=
EXTT8=
EXTT9=
EXTT10=
EXTT11=
PLAYORDER=
